Coordinates
nRows=111
nColumns=2
inDegrees=yes
endheader
time	ankle_angle_r	
3.625	 -4.755335	
3.6875	 -4.806364	
3.75	 -4.808535	
3.8125	 -4.788921	
3.875	 -4.789408	
3.9375	 -4.803977	
4	 -4.824623	
4.0625	 -4.826860	
4.125	 -4.800750	
4.1875	 -4.794470	
4.25	 -4.805120	
4.3125	 -4.792641	
4.375	 -4.771170	
4.4375	 -4.762169	
4.5	 -4.769582	
4.5625	 -4.771521	
4.625	 -4.746775	
4.6875	 -4.768010	
4.75	 -4.846885	
4.8125	 -4.867432	
4.875	 -4.837469	
4.9375	 -4.822851	
5	 -4.810378	
5.0625	 -4.775330	
5.125	 -4.707870	
5.1875	 -4.662462	
5.25	 -4.656285	
5.3125	 -4.634697	
5.375	 -4.629588	
5.4375	 -4.685626	
5.5	 -4.757083	
5.5625	 -4.799628	
5.625	 -4.809463	
5.6875	 -4.800889	
5.75	 -4.808107	
5.8125	 -4.841442	
5.875	 -4.837594	
5.9375	 -4.762722	
6	 -4.723963	
6.0625	 -4.780468	
6.125	 -4.814491	
6.1875	 -4.770330	
6.25	 -4.748141	
6.3125	 -4.786867	
6.375	 -4.794772	
6.4375	 -4.756799	
6.5	 -4.761354	
6.5625	 -4.807537	
6.625	 -4.828835	
6.6875	 -4.800726	
6.75	 -4.758405	
6.8125	 -4.751626	
6.875	 -4.779037	
6.9375	 -4.812964	
7	 -4.808406	
7.0625	 -4.766125	
7.125	 -4.761865	
7.1875	 -4.787978	
7.25	 -4.799171	
7.3125	 -4.810906	
7.375	 -4.813700	
7.4375	 -4.798721	
7.5	 -4.754436	
7.5625	 -4.709367	
7.625	 -4.766554	
7.6875	 -4.853309	
7.75	 -4.832408	
7.8125	 -4.797735	
7.875	 -4.816236	
7.9375	 -4.800344	
8	 -4.760454	
8.0625	 -4.774629	
8.125	 -4.823752	
8.1875	 -4.837625	
8.25	 -4.819733	
8.3125	 -4.828247	
8.375	 -4.846992	
8.4375	 -4.853822	
8.5	 -4.884118	
8.5625	 -4.894962	
8.625	 -4.854898	
8.6875	 -4.844985	
8.75	 -4.865532	
8.8125	 -4.866321	
8.875	 -4.845030	
8.9375	 -4.771616	
9	 -4.718937	
9.0625	 -4.759706	
9.125	 -4.781966	
9.1875	 -4.756670	
9.25	 -4.743974	
9.3125	 -4.758558	
9.375	 -4.818969	
9.4375	 -4.842297	
9.5	 -4.791145	
9.5625	 -4.769086	
9.625	 -4.774406	
9.6875	 -4.810890	
9.75	 -4.899291	
9.8125	 -4.940636	
9.875	 -4.928181	
9.9375	 -4.902020	
10	 -4.873703	
10.0625	 -4.881913	
10.125	 -4.888041	
10.1875	 -4.887843	
10.25	 -4.903436	
10.3125	 -4.896271	
10.375	 -4.905914	
10.4375	 -4.925790	
10.5	 -4.872770	
